<?xml version="1.0" standalone="no"?>
<!DOCTYPE svg PUBLIC "-//W3C//DTD SVG 20010904//EN"
 "http://www.w3.org/TR/2001/REC-SVG-20010904/DTD/svg10.dtd">
<svg version="1.0" xmlns="http://www.w3.org/2000/svg"
 width="644.000000pt" height="644.000000pt" viewBox="0 0 644.000000 644.000000"
 preserveAspectRatio="xMidYMid meet">
<metadata>
Created by potrace 1.14, written by Peter Selinger 2001-2017
</metadata>
<g transform="translate(0.000000,644.000000) scale(0.100000,-0.100000)"
fill="#000000" stroke="none">
<path d="M390 3220 l0 -3221 1428 4 c785 2 1443 6 1462 10 31 6 96 14 180 22
14 1 36 5 50 9 14 3 39 8 55 10 17 2 37 6 45 9 8 3 29 8 45 11 17 2 82 18 145
35 63 17 120 33 125 34 6 1 24 8 40 14 17 6 75 28 130 49 112 42 351 158 435
212 112 71 135 87 138 95 2 4 8 7 14 7 6 0 33 18 62 40 28 22 56 43 61 47 155
117 494 450 539 530 4 8 16 23 25 32 9 9 24 28 33 41 40 56 98 136 106 145 27
34 140 225 184 315 18 36 36 66 41 68 4 2 7 8 7 14 0 5 16 46 36 91 33 75 93
228 98 252 2 6 15 49 30 97 15 48 29 95 31 105 3 10 10 38 16 63 6 25 12 52
13 60 2 8 5 24 9 35 3 11 8 36 11 55 3 19 7 44 10 55 3 18 21 134 31 210 26
192 26 779 1 890 -3 11 -8 45 -11 75 -3 30 -7 62 -9 70 -7 34 -16 87 -20 110
-2 14 -14 66 -25 115 -12 50 -24 101 -27 114 -3 14 -7 28 -10 33 -3 4 -7 18
-9 29 -8 38 -66 212 -98 289 -6 14 -11 27 -12 30 -21 62 -137 294 -198 395
-54 90 -156 243 -204 304 -180 231 -393 446 -600 605 -90 70 -263 187 -263
179 0 -3 -8 1 -17 9 -39 33 -353 194 -396 202 -11 3 -45 15 -87 33 -8 3 -19 7
-25 9 -5 1 -29 9 -52 18 -24 8 -43 13 -43 9 0 -3 -6 -1 -12 5 -29 23 -412 106
-543 118 -27 2 -63 7 -80 10 -16 4 -675 9 -1462 11 l-1433 4 0 -3221z"/>
</g>
</svg>
