<?xml version="1.0" encoding="utf-8"?>
<!-- Generator: Adobe Illustrator 25.1.0, SVG Export Plug-In . SVG Version: 6.00 Build 0)  -->
<svg version="1.1" id="Capa_1" xmlns="http://www.w3.org/2000/svg" xmlns:xlink="http://www.w3.org/1999/xlink" x="0px" y="0px"
	 viewBox="0 0 590.53 501.05" style="enable-background:new 0 0 590.53 501.05;" xml:space="preserve">
<style type="text/css">
	.st0{fill:#DFE0E1;}
	.st1{fill:#FFFFFF;}
	.st2{fill:#0B376B;}
	.st3{fill:#48D6F7;}
	.st4{fill:#AFAFAF;}
	.st5{fill:#9E9E9E;}
	.st6{opacity:0.5;fill:#2E75DD;}
	.st7{fill:#898989;}
	.st8{opacity:0.5;fill:#AFAFAF;}
	.st9{fill:#C6C6C6;}
	.st10{fill:#E58D67;}
	.st11{opacity:0.5;fill:#0B376B;}
	.st12{fill:#1D1D1B;}
	.st13{opacity:0.5;fill:#E58D67;}
	.st14{fill:#2197F9;}
	.st15{fill:#141413;}
	.st16{fill:none;}
	.st17{fill:#969696;}
	.st18{fill:#082644;}
	.st19{opacity:0.5;fill:#48D6F7;}
	.st20{fill:#2E75DD;}
	.st21{fill:#161616;}
	.st22{fill:#CE7F63;}
	.st23{fill:#01142B;}
	.st24{clip-path:url(#SVGID_2_);fill:#1B57AF;}
	.st25{fill:#1B57AF;}
	.st26{opacity:0.5;}
	.st27{fill:#021A3D;}
	.st28{fill:#01101E;}
	.st29{fill:#C4C4C4;}
	.st30{opacity:0.5;fill:#021A3D;}
	.st31{opacity:0.5;fill:#1B57AF;}
</style>
<rect x="109.44" y="3.14" class="st8" width="428.24" height="264.79"/>
<rect x="103.04" class="st0" width="428.24" height="25.47"/>
<g>
	<g>
		<path class="st10" d="M404.26,407.85l-5.44-38.06l-24.45,0.29c0,0,6.52,25.27,7.06,34.24
			C381.44,404.32,384.7,413.01,404.26,407.85z"/>
		<path class="st13" d="M374.37,370.08c0,0,5.31,4.91,24.75,1.8l-0.67-4.11L374.37,370.08z"/>
		<polygon class="st12" points="404.86,241.75 345.16,292.91 345.16,282.45 401.21,236.01 		"/>
		<polygon class="st4" points="401.21,236.01 345.16,282.45 345.16,273.89 398.16,230.51 		"/>
		<g>
			<rect x="103.04" y="25.47" class="st1" width="428.24" height="237.58"/>
			<rect x="130.21" y="50.19" class="st0" width="122.82" height="80.54"/>
			<rect x="271.51" y="49.33" class="st0" width="217.38" height="80.54"/>
			<rect x="130.21" y="142.72" class="st0" width="358.68" height="87.34"/>
			<path class="st2" d="M119.21,11.58c0,2.06-1.67,3.74-3.74,3.74c-2.06,0-3.74-1.67-3.74-3.74c0-2.06,1.67-3.74,3.74-3.74
				C117.54,7.85,119.21,9.52,119.21,11.58z"/>
			<path class="st3" d="M131.71,11.58c0,2.06-1.67,3.74-3.74,3.74c-2.06,0-3.74-1.67-3.74-3.74c0-2.06,1.67-3.74,3.74-3.74
				C130.04,7.85,131.71,9.52,131.71,11.58z"/>
			<path class="st4" d="M144.75,11.58c0,2.06-1.67,3.74-3.74,3.74c-2.06,0-3.74-1.67-3.74-3.74c0-2.06,1.67-3.74,3.74-3.74
				C143.08,7.85,144.75,9.52,144.75,11.58z"/>
		</g>
		<polygon class="st15" points="323.83,293.29 366.76,457.03 349.84,457.03 326.63,380.21 317.16,293.41 		"/>
		<path class="st10" d="M365.53,338.71l-14.25,41.15c0,0-12.56,4.57-17.12-2.17l5.98-47.01L365.53,338.71z"/>
		<polygon class="st15" points="345.16,418.04 332.9,435.67 334.42,449.45 347.74,428.52 		"/>
		<polygon class="st9" points="108.15,273.89 222.46,222.8 408.34,222.8 345.16,273.89 		"/>
		<polygon class="st12" points="131.18,296.71 131.18,282.45 161.75,282.45 345.16,282.45 345.16,292.91 		"/>
		<polygon class="st15" points="402.09,237.4 345.16,285.63 345.16,282.45 401.21,236.01 		"/>
		<polygon class="st13" points="340.13,330.68 364.25,342.39 366.76,335.35 		"/>
		<path class="st2" d="M417.3,255.41c0,0-30.98-1.36-48.64,0c-17.66,1.36-22.28,25.27-24.18,37.5c-1.9,12.23-4.35,37.77-4.35,37.77
			l26.63,8.42c0,0,5.98,28.26,7.61,30.98c0,0,19.29,4.08,29.07-2.45c0,0-2.72-42.39-3.53-44.83c0,0,69.56-7.34,89.67-13.59
			c20.11-6.25,23.91-25.54,11.68-62.23L417.3,255.41z"/>
		<path class="st21" d="M404.26,407.03c0,0,2.72-1.63,5.16,6.11c2.45,7.74,2.85,18.75,2.85,18.75s-51.22,5.43-59.1,5.43
			c-7.88,0-8.7,0-8.7,0s-5.3-9.37,1.22-13.45c6.52-4.08,26.9-13.4,35.6-21.1C381.3,402.78,382.11,413.42,404.26,407.03z"/>
		<path class="st21" d="M351.55,379.05c0,0,9.5,21.6,9.36,22.96c-0.14,1.36-28.05,12.76-45.92,14.4
			c-17.8,1.63-21.87,1.63-21.87,1.63s-2.72-10.19,1.9-11.96c4.62-1.77,33.69-22.82,39.13-28.4
			C334.15,377.69,338.11,382.72,351.55,379.05z"/>
		<path class="st11" d="M446.62,262.81c-0.17,1.15-1.49,2.75-6.22,4.43c-9.17,3.26-52.99,20.86-52.99,20.86
			c-13.04,38.52-20.65,51.02-20.65,51.02l1.05,4.88c0,0,16.85-31.4,21.5-54.26l49.89-19.18c0,0,10.52-4.45,8.76-7.89"/>
		<rect x="488.35" y="322.48" class="st12" width="5.27" height="27.35"/>
		<path class="st0" d="M414.67,321.14c0,0-2.8,4.51,4.67,6.69c7.47,2.17,55.43-1.25,73.77-3.34c18.34-2.09,34.92-9.16,37.63-14.46
			c2.72-5.3-0.41-16.98-5.98-18.21c-5.57-1.22-17.27-2.09-17.27-2.09L414.67,321.14z"/>
		<path class="st0" d="M511.32,235.71c0,0,1.09-12.36,11.28-16.3c10.19-3.94,27.99-5.98,35.19-6.11c7.2-0.14,13.18,1.49,9.24,13.99
			c-3.94,12.5-5.71,27.85-7.47,31.66c-1.77,3.8-1.77,9.78-18.48,14.95c-16.71,5.16-29.62,8.02-36.95,8.29
			c-7.34,0.27-6.79-13.31-6.66-19.43c0.14-6.11,1.36-19.43,7.2-22.69C510.5,236.8,511.32,235.71,511.32,235.71z"/>
		<path class="st9" d="M564.21,238c0,0-4.83,5.61-16.31,8.31c-9.31,2.19-18.07,5.73-19.16,9.4c-1.09,3.67-4.06,22.82-4.06,22.82
			l-4.02,1.09c0,0,2.38-23.23,4.08-26.49c1.7-3.26,4.55-7.07,10.87-7.41C541.92,245.38,564.21,238,564.21,238z"/>
		<path class="st12" d="M519.61,260.17l-11.36,61.43l5.68-1.72l11.52-62.83c0,0,0.27-7.07,11.68-9.31
			c11.41-2.24,23.31-5.68,27.08-9.73l1.9-7.62c0,0-8.05,10.08-30.06,12.53C536.05,242.91,522.86,242.56,519.61,260.17z"/>
		<rect x="485.82" y="349.84" class="st12" width="10.33" height="35.87"/>
		<path class="st0" d="M412.96,421.44c0,0,2.99-12.23,17.93-17.93c14.94-5.71,54.93-17.8,54.93-17.8h5.94c0,0,28.54,1.99,52.58,7.2
			c9.28,2.01,19.56,8.44,20.65,16.58h-5.03c0,0-9.51-17.67-63.04-16.17c0,0,5.3,30.3,2.72,37.36l-7.88,0.82
			c0,0-0.82-27.58-4.35-37.36c0,0-32.61,7.61-43.07,10.6c-10.46,2.99-21.6,8.02-25.95,18.34L412.96,421.44z"/>
		<path class="st12" d="M489.58,432.17c0,0-3.53-0.14-4.35,3.4c-0.82,3.53-0.27,8.7,2.17,9.78s9.65,0.41,11.14-1.49
			c1.49-1.9,2.45-9.37,1.09-13.18L489.58,432.17z"/>
		<path class="st12" d="M412.96,421.44c0,0,5.16-0.68,6.66,2.45c1.49,3.12,1.22,7.06,0,8.83c-1.22,1.77-5.16,3.8-8.83,2.58
			c-3.67-1.22-4.62-6.79-3.67-9.92C408.06,422.25,410.29,421.4,412.96,421.44z"/>
		<path class="st12" d="M559.34,408.6c0,0-4-0.61-5.77,3.74c-1.77,4.35-0.08,8.83,2.88,9.65s6.9,0.27,8.53-2.99
			c1.63-3.26,1.22-8.41,0-9.5C563.76,408.39,561.34,408.41,559.34,408.6z"/>
		<polygon class="st0" points="345.16,282.45 131.38,282.45 108.15,282.45 108.15,273.89 345.16,273.89 		"/>
		<polygon class="st12" points="122.62,506.21 161.75,282.45 180.09,282.45 144.22,506.21 		"/>
		<polygon class="st12" points="319.21,501.05 340.13,501.05 315.95,282.45 297.74,282.45 		"/>
		<polygon class="st15" points="185.25,295.75 190.14,462.19 171.39,462.19 168.05,357.57 177.95,295.75 		"/>
		<polygon class="st15" points="174.65,422.52 155.02,438.82 152.1,457.03 176.55,435.67 176.55,421.37 		"/>
		<path class="st4" d="M207.6,107.87l62.1-7.95c0,0,6.17,110.18,6.17,109.56s-63.13,27.51-63.13,27.51L207.6,107.87z"/>
		<path class="st0" d="M210.45,108l59.51-7.88c0,0,5.91,109.17,5.91,108.55c0-0.61-60.53,26.29-60.53,26.29L210.45,108z"/>
		<polygon class="st12" points="217.18,217.85 273.02,194.82 268.33,103.31 212.9,110.24 		"/>
		<path class="st4" d="M246.12,234.96l-29.01-0.78l-1.76,0.78l-2.45-45.04c0,0-14.06,41.57-14.06,43.41
			c-0.78,6.85,2.04,9.17,2.04,9.17l24.01,0.6L246.12,234.96z"/>
		<polygon class="st4" points="321.72,231.09 301.55,244.54 334.9,244.54 337.34,243.71 352.15,231.09 324.17,230.26 		"/>
		<polygon class="st0" points="324.17,230.26 303.99,243.71 337.34,243.71 354.59,230.26 		"/>
		<path class="st11" d="M417.3,255.41c0,0,2.45,8.41,18.14,8.1c15.69-0.31,52.54-5.55,63.31-12.4l1.2-4.8
			C499.95,246.31,422.41,255.6,417.3,255.41z"/>
		<path class="st22" d="M372.13,146.49c0,0,16.58,6.21,20.92,13l18.21-6.5l-24.73-23.12L372.13,146.49z"/>
		<path class="st3" d="M403.68,124.95c0,0,19.6,18.51,31.83,25.03c12.23,6.52,48.37,57.88,52.99,63.58
			c4.62,5.71,12.23,18.42,12.5,26.63c0.17,5.16-1.15,6.94-1.15,6.94s-28.74,13.17-62.97,14.53c0,0-21.47,4.89-40.22-34.24
			c0,0-10.05,17.93-20.11,19.56c-10.05,1.63-25.81-10.05-25.81-17.39s0-16.03,0-16.03s-4.89-7.88-2.99-13.86
			c1.9-5.98,4.89-4.89,4.89-4.89s-2.99-9.24-2.45-12.5c0.54-3.26,15.22-4.62,15.22-4.62s1.63,6.25,2.17,7.34
			c0.54,1.09,4.62-4.89,6.52-1.63c1.9,3.26,0.54,28.8,0.54,28.8s4.89-15.76,6.79-23.64c1.9-7.88,4.62-23.37,7.88-28.8
			C392.58,154.33,400.81,125.46,403.68,124.95z"/>
		<path class="st11" d="M387.72,163.27l48.68-12.77c0,0-36.34-22.53-44.22-24.29C384.29,124.46,387.72,163.27,387.72,163.27z"/>
		<path class="st23" d="M376.34,137.66c0,0-5.36,1.29-6.9,10.63c-1.54,9.34,1.66,10.65,0.57,13.81c-1.09,3.16,13.59-1.43,13.59-1.43
			l-1.36-26.85L376.34,137.66z"/>
		<path class="st10" d="M351.19,181.04c0,0-1.28-23.32,1.03-25.76c2.31-2.45,2.99-5.3,8.42-5.98c5.43-0.68,9.24-1.9,10.87,0
			c1.63,1.9,0,5.59,0,5.59s-1.77,4.19-2.85,3.78c-1.09-0.41-1.63-4.89-1.63-4.89l-0.54,7.88c0,0,9.51-11.68,11.82-12.64
			c2.31-0.95,5.43-0.27,3.12,2.45c-2.31,2.72-6.52,10.48-8.42,13.19c-1.9,2.71-7.2,9.37-8.42,9.37c-1.22,0-0.01,3.75-0.01,3.75
			S353.83,179.36,351.19,181.04z"/>
		<path class="st10" d="M361.06,100.12c0,0-5.03,5.03-5.03,10.87c0,5.84-0.19,10.93-1.49,13.86c-1.7,3.83-3.72,5.3-3.69,6.25
			c0.03,0.95,2.17,2.31,5.11,2.31c0,0,1.39,2.67,1.69,5.47c0.31,2.8,1.32,8.58,2.85,9.41c1.53,0.83,18.09,1.11,19.97,0
			c1.89-1.11,7.8-7.02,7.8-7.02s1.22-5.25,0.87-10.34c-0.36-5.09-7.69-15.39-9.83-17.12C377.16,112.08,364.16,101.41,361.06,100.12z
			"/>
		<path class="st13" d="M360.99,100.8c0,0,17.4,15,19.21,20.84c1.81,5.84,4.12,12.07,1.4,16.02c-2.72,3.95-8.13,8.69-9.47,9.66
			c-1.34,0.97-4.16,1.47-10.18,1.28c0,0,14.12,1.33,18.52-0.31c0,0,11.13,2.55,11.23-11.71
			C391.79,122.32,369.58,102.65,360.99,100.8z"/>
		<path class="st18" d="M356.89,106.61c0,0-1.65-8.45,1.36-11.76c3.01-3.31,12.58-8.1,17.48-8.97c4.89-0.87,11.29-3.4,20.92-0.03
			c9.63,3.36,21.81,12.5,22.49,26.49c0.36,7.46,9.06,11.32,12.5,17.53c4.04,7.28,2.88,16.34,2.88,16.34s-6.86,2.75-12.71,4.98
			c0.42-5.33-3.99-14.51-3.67-13.53c2.34,7.02,1.85,14.12,0.87,14.49c-15.7,5.92-37.75,13.95-38.33,12.51
			c-6.25-15.65,4.65-24.07,5.56-29.13c0.69-3.83,2.8-11.88-12.6-26.28c0,0-11.93-8.68-12.66-8.45S356.89,106.61,356.89,106.61z"/>
		<path class="st11" d="M396.65,227.42c0,0,18.14-33.97,18.68-50.81c0.54-16.85-1.8-17.88-1.8-17.88s3.33,4.08,3.77,13.45
			c0.44,9.37-0.42,30.43-19.35,57.88L396.65,227.42z"/>
		<path class="st11" d="M352.63,194.82c0,0,10.12-4.08,14.95-9.78c0,0-8.27,14.36-17.3,10.4
			C350.28,195.43,352.06,194.22,352.63,194.82z"/>
		<path class="st9" d="M511.32,235.71c0,0,38.92-21.27,53.67-21.3c0,0-2.8-2.78-21.71,0.23c-15.04,2.39-26.3,3.82-30.14,14.41
			C509.83,238.16,511.32,235.71,511.32,235.71z"/>
		<path class="st1" d="M370.1,416.69c-0.16,0-0.31-0.08-0.39-0.22c-2.02-3.3-4-2.91-4.08-2.89c-0.24,0.03-0.5-0.1-0.55-0.35
			c-0.06-0.25,0.09-0.49,0.34-0.55c0.1-0.02,2.68-0.6,5.08,3.32c0.13,0.22,0.06,0.5-0.15,0.63
			C370.26,416.67,370.18,416.69,370.1,416.69z"/>
		<path class="st1" d="M364.36,420.07c-0.16,0-0.31-0.08-0.39-0.22c-2.02-3.3-4-2.92-4.08-2.89c-0.23,0.05-0.5-0.1-0.55-0.35
			c-0.06-0.25,0.09-0.49,0.34-0.55c0.1-0.02,2.68-0.6,5.08,3.32c0.13,0.22,0.06,0.5-0.15,0.63
			C364.52,420.05,364.44,420.07,364.36,420.07z"/>
		<path class="st1" d="M357.81,423.4c-0.16,0-0.31-0.08-0.39-0.22c-2.02-3.3-4.01-2.92-4.08-2.89c-0.25,0.03-0.5-0.1-0.55-0.35
			c-0.06-0.25,0.09-0.49,0.34-0.55c0.1-0.02,2.68-0.6,5.08,3.32c0.13,0.22,0.06,0.5-0.15,0.63
			C357.98,423.38,357.9,423.4,357.81,423.4z"/>
		<path class="st11" d="M374.64,212.21c0,0-3.02,7.01-3.06,10.6c0,0,3.43-5.28,4.21-14.37L374.64,212.21z"/>
		<rect x="131.18" y="282.45" class="st15" width="213.98" height="3.18"/>
	</g>
	<g>
		<rect x="456.05" y="52.07" class="st19" width="134.48" height="90.21"/>
		<rect x="451.43" y="47.45" class="st20" width="134.48" height="90.21"/>
		<g>
			<g>
				<path class="st1" d="M509.72,84.82h2.81V99.4c0,5.79-2.85,7.57-6.6,7.57c-1.04,0-2.3-0.23-3.01-0.52l0.42-2.3
					c0.58,0.23,1.42,0.42,2.36,0.42c2.52,0,4.01-1.13,4.01-5.4V84.82z"/>
				<path class="st1" d="M516.83,103.19c1.26,0.77,3.11,1.42,5.05,1.42c2.88,0,4.56-1.52,4.56-3.72c0-2.04-1.17-3.2-4.11-4.34
					c-3.56-1.26-5.76-3.11-5.76-6.18c0-3.4,2.81-5.92,7.05-5.92c2.23,0,3.85,0.52,4.82,1.07l-0.78,2.3
					c-0.71-0.39-2.17-1.04-4.14-1.04c-2.97,0-4.11,1.78-4.11,3.27c0,2.04,1.33,3.04,4.33,4.21c3.69,1.42,5.56,3.2,5.56,6.41
					c0,3.36-2.49,6.27-7.63,6.27c-2.1,0-4.4-0.61-5.56-1.39L516.83,103.19z"/>
			</g>
		</g>
		<g>
			<path class="st1" d="M464.86,58.74l2.01,2.36c0.52,0.61,0.96,1.18,1.43,1.8h0.09c0.47-0.66,0.93-1.23,1.4-1.82l1.98-2.34h2.76
				l-4.8,5.31l4.94,5.68h-2.91l-2.06-2.47c-0.55-0.64-1.02-1.25-1.51-1.91h-0.06c-0.47,0.66-0.96,1.25-1.48,1.91l-2.03,2.47h-2.82
				l5-5.61l-4.77-5.38H464.86z"/>
		</g>
	</g>
	<g>
		<rect x="5.11" y="49.51" class="st19" width="145.11" height="194.96"/>
		<rect x="0.49" y="44.9" class="st1" width="145.11" height="194.96"/>
		<g>
			<path d="M13.91,56.18l2.01,2.36c0.52,0.61,0.96,1.18,1.43,1.8h0.09c0.47-0.66,0.93-1.23,1.4-1.82l1.98-2.34h2.76l-4.8,5.31
				l4.94,5.68H20.8l-2.06-2.47c-0.55-0.64-1.02-1.25-1.51-1.91h-0.06c-0.47,0.66-0.96,1.25-1.48,1.91l-2.03,2.47h-2.82l5-5.61
				l-4.77-5.38H13.91z"/>
		</g>
		<path class="st12" d="M28.41,158.5H19.5c-0.25,0-0.46-0.2-0.46-0.46v-8.91c0-0.26,0.21-0.46,0.46-0.46h8.91
			c0.25,0,0.46,0.2,0.46,0.46v8.91C28.87,158.29,28.66,158.5,28.41,158.5z M19.96,157.58h7.98v-7.98h-7.98V157.58z"/>
		<path class="st12" d="M28.41,209.58H19.5c-0.25,0-0.46-0.2-0.46-0.46v-8.9c0-0.26,0.21-0.46,0.46-0.46h8.91
			c0.25,0,0.46,0.2,0.46,0.46v8.9C28.87,209.38,28.66,209.58,28.41,209.58z M19.96,208.66h7.98v-7.98h-7.98V208.66z"/>
		<rect x="40.7" y="149.13" class="st0" width="84.23" height="4.45"/>
		<rect x="40.7" y="157.8" class="st0" width="84.23" height="4.45"/>
		<rect x="40.7" y="167.34" class="st0" width="53.62" height="4.45"/>
		<rect x="40.7" y="200.22" class="st0" width="84.23" height="4.45"/>
		<rect x="40.7" y="208.88" class="st0" width="84.23" height="4.45"/>
		<rect x="40.7" y="218.42" class="st0" width="37.02" height="4.45"/>
		<g>
			<g>
				<defs>
					
						<ellipse id="SVGID_1_" transform="matrix(0.923 -0.3849 0.3849 0.923 -32.3093 36.1341)" cx="74.11" cy="98.78" rx="27.31" ry="27.31"/>
				</defs>
				<clipPath id="SVGID_2_">
					<use xlink:href="#SVGID_1_"  style="overflow:visible;"/>
				</clipPath>
				<path class="st24" d="M90.96,123.32c0,9.3-7.54,16.85-16.85,16.85s-16.85-7.54-16.85-16.85s7.54-16.85,16.85-16.85
					S90.96,114.01,90.96,123.32z"/>
			</g>
			<path class="st12" d="M74.11,126.55c-15.31,0-27.77-12.45-27.77-27.77c0-15.31,12.46-27.77,27.77-27.77s27.77,12.46,27.77,27.77
				C101.88,114.09,89.42,126.55,74.11,126.55z M74.11,71.93c-14.8,0-26.85,12.04-26.85,26.85c0,14.81,12.04,26.85,26.85,26.85
				s26.85-12.04,26.85-26.85C100.96,83.97,88.91,71.93,74.11,71.93z"/>
			<circle class="st25" cx="74.11" cy="94.86" r="10.05"/>
		</g>
	</g>
	<path class="st13" d="M355.95,133.41c-0.12-0.23-0.34-0.4-0.09-0.45c0.02,0,1.97-0.42,1.97-1.43c0-0.25,0.2-0.46,0.46-0.46
		c0.26,0,0.46,0.21,0.46,0.46c0,1.78-2.49,2.27-2.6,2.3C356.12,133.83,356.11,133.71,355.95,133.41z"/>
	<path class="st18" d="M411.26,100.12c0,0-1.23-0.04-1.15,0c1.03,0.53,5.5-1.06,8.12,5.44c2.67,6.65,4.3,12.33,9.13,15.9
		c4.76,3.52,11.81,8.99,11.85,22.97l-2.94,1.16c0,0-0.07-13.72-5.68-18.91c-4.48-4.14-9.17-7.07-10.83-11.37
		S417.25,103.84,411.26,100.12z"/>
	<g>
		<g>
			<path class="st18" d="M357.87,114.87c-0.12,0-0.23-0.05-0.32-0.14c-0.18-0.18-0.19-0.47,0-0.65c0.11-0.11,2.68-2.75,5.22-2.38
				c2.45,0.33,3.57,1.64,3.62,1.69c0.16,0.2,0.14,0.49-0.06,0.65c-0.2,0.16-0.48,0.14-0.65-0.06c0-0.01-0.95-1.09-3.03-1.37
				c-2.01-0.29-4.42,2.08-4.44,2.11C358.11,114.83,357.99,114.87,357.87,114.87z"/>
		</g>
	</g>
	<g class="st26">
		<path class="st10" d="M357.64,139.34c-0.23,0-0.43-0.18-0.46-0.41c-0.03-0.25,0.16-0.48,0.41-0.51c2.82-0.3,10.36-1.68,11.36-4.3
			c0.1-0.24,0.37-0.36,0.6-0.27c0.23,0.09,0.36,0.36,0.27,0.6c-1.39,3.62-11.03,4.77-12.13,4.89
			C357.67,139.33,357.66,139.34,357.64,139.34z"/>
	</g>
	<path class="st18" d="M361.08,119.73c0,0.46-0.38,0.84-0.84,0.84c-0.46,0-0.84-0.38-0.84-0.84s0.38-0.84,0.84-0.84
		C360.71,118.89,361.08,119.27,361.08,119.73z"/>
	<path class="st12" d="M57.51,300.57c-2.06,0-3.74-1.67-3.74-3.74c0-2.06,1.68-3.73,3.74-3.73c2.06,0,3.74,1.67,3.74,3.73
		C61.24,298.89,59.57,300.57,57.51,300.57z M57.51,294.02c-1.55,0-2.81,1.26-2.81,2.81c0,1.55,1.26,2.81,2.81,2.81
		c1.55,0,2.81-1.26,2.81-2.81C60.32,295.29,59.06,294.02,57.51,294.02z"/>
	<path class="st12" d="M556.13,28.21c-2.06,0-3.74-1.67-3.74-3.73c0-2.06,1.68-3.74,3.74-3.74c2.06,0,3.74,1.67,3.74,3.74
		C559.86,26.53,558.19,28.21,556.13,28.21z M556.13,21.66c-1.55,0-2.81,1.26-2.81,2.82c0,1.55,1.26,2.81,2.81,2.81
		c1.55,0,2.81-1.26,2.81-2.81C558.94,22.93,557.68,21.66,556.13,21.66z"/>
	<path class="st12" d="M253.03,449.6c-2.06,0-3.74-1.67-3.74-3.74c0-2.06,1.68-3.73,3.74-3.73c2.06,0,3.74,1.67,3.74,3.73
		C256.77,447.93,255.1,449.6,253.03,449.6z M253.03,443.05c-1.55,0-2.81,1.26-2.81,2.81c0,1.55,1.26,2.81,2.81,2.81
		c1.55,0,2.81-1.26,2.81-2.81C255.85,444.32,254.59,443.05,253.03,443.05z"/>
	<g>
		<path d="M116.35,343.37l-3.83,3.83l3.67,3.67l-1.32,1.32l-3.68-3.67l-3.86,3.86l-1.39-1.39l3.86-3.86l-3.67-3.67l1.32-1.32
			l3.67,3.67l3.83-3.83L116.35,343.37z"/>
	</g>
	<g>
		<path d="M571.05,343.36l-3.83,3.83l3.68,3.68l-1.32,1.32l-3.68-3.68l-3.86,3.86l-1.39-1.39l3.86-3.86l-3.67-3.67l1.32-1.32
			l3.67,3.67l3.83-3.83L571.05,343.36z"/>
	</g>
	<g>
		<path d="M61.73,14.93l-3.83,3.83l3.67,3.67l-1.32,1.32l-3.67-3.67l-3.86,3.86l-1.39-1.39l3.86-3.86l-3.67-3.67l1.32-1.32
			l3.67,3.67l3.83-3.83L61.73,14.93z"/>
	</g>
	<g>
		<path d="M564.2,173.01l-3.83,3.83l3.68,3.68l-1.32,1.32l-3.68-3.68l-3.86,3.86l-1.39-1.39l3.86-3.86l-3.67-3.67l1.32-1.32
			l3.67,3.67l3.83-3.83L564.2,173.01z"/>
	</g>
	<g>
		<path d="M369.41,249.31l-3.83,3.83l3.68,3.68l-1.32,1.32l-3.68-3.68l-3.86,3.86l-1.39-1.39l3.86-3.86l-3.67-3.67l1.32-1.32
			l3.67,3.67l3.83-3.83L369.41,249.31z"/>
	</g>
	<polygon class="st8" points="215.34,234.96 200.87,242.5 224.89,243.1 246.12,234.96 217.1,234.18 	"/>
</g>
<path class="st13" d="M367.03,153.79c0,0,0.75-2.46,1.97-3.12c0,0-1.9,2.99-1.49,5.72C367.52,156.38,367.05,155.08,367.03,153.79z"
	/>
<path class="st9" d="M414.67,321.14c0,0,83.49-16.78,92.83-31.41L414.67,321.14z"/>
<path class="st23" d="M360.99,100.8c0,0-2.97-1.78-3.58-4.63c0,0-2.2,3.88-0.52,10.45L360.99,100.8z"/>
<path class="st23" d="M371.27,100.8c0,0,17.92,8.72,20.42,22.05c1.69,9-0.06,16.53-3.98,24.99c-3.91,8.46-0.65,13.14-0.65,13.14
	l5.44-2.25c0,0-3.41-4.19,0.57-14.47c3.97-10.29,2.17-21.3,1.12-23.68C391.7,114.87,385.54,106.96,371.27,100.8z"/>
<path class="st23" d="M415.29,113.27c0,0,4.08,11.94,6.42,13.97c2.34,2.04,9.27,12.45,8.97,17.44l-3.77,1.69c0,0-0.02-5.26-2.25-9.8
	C422.43,132.04,415.37,122.61,415.29,113.27z"/>
<path class="st11" d="M498.17,253.12c0,0-5.91,17.8-1.15,27.44c0,0,2.15,5.17,11.1,4.62l0.13-3.36c0,0-3.35,0.64-5.79,0.14
	C498.31,281.1,496.2,274.39,498.17,253.12z"/>
</svg>
