<?xml version="1.0" encoding="utf-8"?>
<!-- Generator: Adobe Illustrator 16.0.0, SVG Export Plug-In . SVG Version: 6.00 Build 0)  -->
<!DOCTYPE svg PUBLIC "-//W3C//DTD SVG 1.1//EN" "http://www.w3.org/Graphics/SVG/1.1/DTD/svg11.dtd">
<svg version="1.1" id="Capa_1" xmlns="http://www.w3.org/2000/svg" xmlns:xlink="http://www.w3.org/1999/xlink" x="0px" y="0px"
	 width="425.197px" height="54.495px" viewBox="0 0 425.197 54.495" enable-background="new 0 0 425.197 54.495"
	 xml:space="preserve">
<g>
	<path fill="#0B376B" d="M80.652,1.11c5.607,0,10.29,1.967,14.048,5.899c3.757,3.934,5.636,8.782,5.636,14.543
		c0,5.764-1.879,10.612-5.636,14.544c-3.758,3.933-8.44,5.899-14.048,5.899H64.415V1.11H80.652z M80.652,34.286
		c3.543,0,6.426-1.178,8.645-3.533c2.219-2.355,3.329-5.422,3.329-9.2c0-3.776-1.11-6.843-3.329-9.2
		c-2.219-2.355-5.102-3.533-8.645-3.533h-8.177v25.466H80.652z"/>
	<path fill="#0B376B" d="M112.075,30.488c1.013,3.662,3.757,5.492,8.236,5.492c2.881,0,5.061-0.975,6.542-2.921l6.075,3.505
		c-2.882,4.166-7.126,6.25-12.733,6.25c-4.829,0-8.702-1.462-11.623-4.382c-2.92-2.921-4.38-6.601-4.38-11.04
		c0-4.4,1.44-8.069,4.322-11.009c2.881-2.939,6.58-4.41,11.098-4.41c4.283,0,7.816,1.479,10.601,4.439
		c2.783,2.959,4.176,6.62,4.176,10.98c0,0.974-0.097,2.007-0.292,3.095H112.075z M111.958,24.648h14.894
		c-0.429-1.986-1.314-3.465-2.657-4.439c-1.344-0.972-2.872-1.46-4.585-1.46c-2.025,0-3.7,0.517-5.023,1.548
		C113.262,21.329,112.387,22.778,111.958,24.648z"/>
	<path fill="#0B376B" d="M157.692,12.792h8.294l-11.098,29.204h-8.585l-11.098-29.204h8.294l7.079,20.438L157.692,12.792z"/>
	<path fill="#0B376B" d="M174.747,21.086c0,0.779,0.516,1.412,1.548,1.898c1.031,0.488,2.288,0.915,3.767,1.285
		c1.48,0.37,2.959,0.838,4.439,1.401c1.479,0.565,2.735,1.51,3.767,2.833c1.031,1.324,1.548,2.979,1.548,4.965
		c0,2.999-1.12,5.306-3.358,6.921c-2.24,1.616-5.033,2.426-8.381,2.426c-5.997,0-10.085-2.316-12.266-6.952l6.542-3.68
		c0.856,2.532,2.765,3.798,5.724,3.798c2.687,0,4.03-0.838,4.03-2.513c0-0.777-0.516-1.41-1.547-1.898
		c-1.032-0.485-2.289-0.924-3.768-1.313c-1.48-0.39-2.959-0.876-4.439-1.46c-1.48-0.584-2.736-1.508-3.767-2.775
		c-1.032-1.264-1.548-2.852-1.548-4.759c0-2.883,1.06-5.15,3.183-6.805c2.122-1.655,4.761-2.482,7.914-2.482
		c2.375,0,4.536,0.536,6.483,1.606c1.946,1.071,3.484,2.599,4.614,4.584l-6.425,3.504c-0.935-1.985-2.493-2.978-4.673-2.978
		c-0.974,0-1.781,0.215-2.423,0.642C175.068,19.762,174.747,20.346,174.747,21.086z"/>
	<path fill="#2197F9" d="M203.366,34.286h15.596v7.71h-23.656V1.11h8.06V34.286z"/>
	<path fill="#2197F9" d="M228.949,30.488c1.012,3.662,3.757,5.492,8.235,5.492c2.881,0,5.062-0.975,6.541-2.921l6.074,3.505
		c-2.881,4.166-7.125,6.25-12.733,6.25c-4.828,0-8.701-1.462-11.623-4.382c-2.92-2.921-4.379-6.601-4.379-11.04
		c0-4.4,1.44-8.069,4.321-11.009c2.881-2.939,6.58-4.41,11.098-4.41c4.282,0,7.817,1.479,10.602,4.439
		c2.782,2.959,4.177,6.62,4.177,10.98c0,0.974-0.099,2.007-0.293,3.095H228.949z M228.832,24.648h14.894
		c-0.429-1.986-1.313-3.465-2.657-4.439c-1.345-0.972-2.872-1.46-4.585-1.46c-2.026,0-3.699,0.517-5.023,1.548
		C230.135,21.329,229.26,22.778,228.832,24.648z"/>
	<path fill="#2197F9" d="M278.478,12.792h7.535v29.204h-7.535v-3.446c-2.259,2.842-5.433,4.265-9.521,4.265
		c-3.894,0-7.232-1.49-10.017-4.47c-2.784-2.978-4.175-6.629-4.175-10.952c0-4.321,1.391-7.972,4.175-10.951
		s6.123-4.468,10.017-4.468c4.089,0,7.263,1.422,9.521,4.264V12.792z M264.577,33.322c1.519,1.539,3.447,2.308,5.783,2.308
		s4.272-0.769,5.812-2.308c1.537-1.538,2.307-3.513,2.307-5.929c0-2.413-0.77-4.389-2.307-5.928
		c-1.539-1.537-3.476-2.307-5.812-2.307s-4.265,0.77-5.783,2.307c-1.519,1.539-2.276,3.515-2.276,5.928
		C262.3,29.809,263.058,31.784,264.577,33.322z"/>
	<path fill="#2197F9" d="M300.379,17.814c0.702-1.869,1.86-3.271,3.477-4.205c1.615-0.935,3.417-1.401,5.402-1.401v8.41
		c-2.298-0.271-4.352,0.195-6.162,1.401c-1.811,1.208-2.717,3.213-2.717,6.017v13.959h-7.534V12.792h7.534V17.814z"/>
	<path fill="#2197F9" d="M329.876,11.974c3.191,0,5.831,1.072,7.914,3.213s3.124,5.101,3.124,8.877v17.932h-7.534V24.998
		c0-1.946-0.525-3.435-1.576-4.468c-1.053-1.031-2.454-1.548-4.207-1.548c-1.946,0-3.504,0.604-4.671,1.811
		c-1.169,1.208-1.753,3.018-1.753,5.433v15.77h-7.535V12.792h7.535v3.271C323.002,13.337,325.905,11.974,329.876,11.974z"/>
	<path fill="#2197F9" d="M351.077,9.288c-1.247,0-2.327-0.458-3.242-1.373s-1.372-1.996-1.372-3.242
		c0-1.246,0.457-2.337,1.372-3.272C348.75,0.468,349.83,0,351.077,0c1.285,0,2.384,0.468,3.301,1.401
		c0.913,0.935,1.372,2.026,1.372,3.272c0,1.246-0.459,2.327-1.372,3.242C353.46,8.83,352.362,9.288,351.077,9.288z M347.338,41.996
		V12.792h7.534v29.204H347.338z"/>
	<path fill="#2197F9" d="M378.003,11.974c3.191,0,5.831,1.072,7.914,3.213s3.124,5.101,3.124,8.877v17.932h-7.534V24.998
		c0-1.946-0.525-3.435-1.576-4.468c-1.053-1.031-2.454-1.548-4.207-1.548c-1.946,0-3.504,0.604-4.671,1.811
		c-1.169,1.208-1.753,3.018-1.753,5.433v15.77h-7.535V12.792h7.535v3.271C371.129,13.337,374.032,11.974,378.003,11.974z"/>
	<path fill="#2197F9" d="M417.837,12.792h7.359v27.802c0,4.516-1.49,7.962-4.468,10.337c-2.979,2.375-6.571,3.563-10.776,3.563
		c-3.154,0-5.93-0.604-8.324-1.811c-2.395-1.208-4.233-2.979-5.519-5.315l6.425-3.68c1.479,2.726,4.029,4.089,7.65,4.089
		c2.375,0,4.244-0.623,5.608-1.869c1.361-1.247,2.044-3.019,2.044-5.314V37.44c-2.22,2.959-5.336,4.438-9.345,4.438
		c-4.128,0-7.584-1.45-10.368-4.352c-2.785-2.9-4.176-6.434-4.176-10.601c0-4.126,1.401-7.652,4.205-10.572
		c2.803-2.92,6.25-4.38,10.339-4.38c4.009,0,7.125,1.479,9.345,4.439V12.792z M403.791,32.679c1.537,1.499,3.494,2.248,5.869,2.248
		s4.332-0.749,5.871-2.248c1.537-1.498,2.307-3.417,2.307-5.753c0-2.297-0.77-4.196-2.307-5.695
		c-1.539-1.498-3.496-2.249-5.871-2.249s-4.332,0.75-5.869,2.249c-1.538,1.499-2.307,3.398-2.307,5.695
		C401.484,29.262,402.252,31.181,403.791,32.679z"/>
</g>
<g>
	<path fill="#0B376B" d="M17.159,1.034c5.925,0,10.872,2.078,14.843,6.234c3.97,4.155,5.956,9.278,5.956,15.368
		c0,6.089-1.986,11.212-5.956,15.367c-3.972,4.158-8.918,6.234-14.843,6.234H0V1.034H17.159z"/>
</g>
<g>
	<g>
		<path fill="#2197F9" d="M17.036,27.945h11.938c0,0-2.285,8.146-11.481,8.146c-0.696,0-8.975,0-8.975,0V9.182h8.518V27.945z"/>
	</g>
</g>
</svg>
